<svg xmlns="http://www.w3.org/2000/svg" width="16" height="16" viewBox="0 0 16 16">
    <path fill="none" fill-rule="evenodd" stroke="#262626" d="M7.667.997l-6.53 6.53-.054.065c-.126.182-.11.434.054.597h0l6.53 6.533.065.054c.183.126.434.108.595-.054h0l.057-.063c.124-.183.107-.435-.057-.598h0L2.593 8.325H14.53l.084-.007c.217-.04.381-.232.381-.46h0l-.008-.084c-.04-.217-.227-.383-.457-.383h0H2.593l5.734-5.737.057-.064c.124-.178.107-.43-.057-.593h0c-.091-.092-.21-.138-.329-.138h0c-.118 0-.24.046-.33.138h0z"/>
</svg>
