<svg xmlns="http://www.w3.org/2000/svg" width="6" height="12" viewBox="0 0 6 12">
    <path fill="#6BD7FD" fill-rule="evenodd" d="M3.907 0c-.402-.008-.79.138-1.088.408-.542.468-.603 1.289-.135 1.832.042.048.087.093.135.134.62.555 1.556.555 2.175 0 .543-.472.6-1.296.126-1.838C5.081.49 5.038.448 4.994.408 4.708.146 4.335 0 3.949 0h-.042zM2.482 4.006c-.367.005-.734.065-1.086.18-.384.119-.788.262-1.212.428L0 5.331c.125-.044.277-.093.45-.147.167-.049.339-.074.511-.076.243-.026.486.033.69.168.139.165.203.379.18.592 0 .183-.02.366-.06.544-.038.19-.087.391-.147.603L.978 9.232c-.053.206-.094.414-.125.624-.026.18-.038.362-.038.543-.003.44.198.855.543 1.126.416.319.933.477 1.457.445.368.007.735-.045 1.086-.158.308-.105.72-.255 1.233-.451l.174-.684c-.14.057-.282.105-.43.141-.184.043-.374.06-.564.05-.244.021-.49-.034-.7-.159-.155-.158-.23-.377-.202-.598.006-.182.027-.364.065-.543.037-.205.084-.408.142-.609l.641-2.204c.065-.219.11-.443.13-.67 0-.244.033-.413.033-.51.013-.435-.173-.854-.506-1.136-.372-.285-.827-.438-1.293-.438-.047 0-.094.001-.142.004z"/>
</svg>
